<svg width="165" height="97" viewBox="0 0 165 97" fill="none" xmlns="http://www.w3.org/2000/svg">
<path d="M68.6452 47.3596C67.1771 47.3596 65.8787 47.1199 64.7501 46.6404C63.6315 46.1511 62.7526 45.412 62.1134 44.4232C61.4742 43.4344 61.1546 42.176 61.1546 40.6479C61.1546 39.3895 61.3693 38.3158 61.7988 37.4269C62.2282 36.528 62.8275 35.7939 63.5965 35.2247C64.3656 34.6554 65.2595 34.2209 66.2782 33.9213C67.3069 33.6216 68.4155 33.4269 69.6041 33.337C70.8924 33.2371 71.9262 33.1173 72.7052 32.9774C73.4942 32.8276 74.0635 32.6229 74.4131 32.3632C74.7626 32.0936 74.9374 31.739 74.9374 31.2995V31.2396C74.9374 30.6404 74.7077 30.1809 74.2483 29.8613C73.7888 29.5417 73.1996 29.3819 72.4805 29.3819C71.6915 29.3819 71.0473 29.5567 70.5479 29.9063C70.0585 30.2458 69.7639 30.7702 69.664 31.4793H62.0534C62.1533 30.0811 62.5978 28.7927 63.3868 27.6141C64.1858 26.4256 65.3493 25.4768 66.8774 24.7677C68.4055 24.0486 70.3132 23.689 72.6003 23.689C74.2483 23.689 75.7264 23.8838 77.0348 24.2733C78.3432 24.6528 79.4568 25.1871 80.3756 25.8763C81.2945 26.5554 81.9936 27.3544 82.473 28.2733C82.9624 29.1822 83.2071 30.1709 83.2071 31.2396V47H75.4767V43.764H75.297C74.8375 44.623 74.2782 45.3171 73.6191 45.8464C72.9699 46.3758 72.2258 46.7603 71.3868 47C70.5579 47.2397 69.644 47.3596 68.6452 47.3596ZM71.3419 42.146C71.9711 42.146 72.5604 42.0162 73.1097 41.7565C73.669 41.4968 74.1234 41.1223 74.473 40.6329C74.8226 40.1435 74.9973 39.5493 74.9973 38.8501V36.9325C74.7776 37.0224 74.5429 37.1073 74.2932 37.1872C74.0535 37.2671 73.7938 37.342 73.5142 37.4119C73.2445 37.4818 72.9549 37.5468 72.6453 37.6067C72.3456 37.6666 72.031 37.7215 71.7014 37.7715C71.0622 37.8714 70.5379 38.0362 70.1284 38.2659C69.7289 38.4856 69.4293 38.7603 69.2295 39.0898C69.0398 39.4094 68.9449 39.769 68.9449 40.1685C68.9449 40.8077 69.1696 41.2971 69.619 41.6367C70.0685 41.9763 70.6428 42.146 71.3419 42.146ZM96.5572 56.1087C94.25 56.1087 92.2725 55.7791 90.6245 55.1199C88.9866 54.4707 87.7132 53.5718 86.8043 52.4233C85.9054 51.2847 85.401 49.9763 85.2912 48.4981H93.2613C93.3412 48.9875 93.5409 49.382 93.8605 49.6817C94.1801 49.9813 94.5896 50.196 95.089 50.3259C95.5984 50.4657 96.1676 50.5356 96.7969 50.5356C97.8655 50.5356 98.7494 50.2759 99.4486 49.7566C100.158 49.2372 100.512 48.2984 100.512 46.9401V43.0449H100.273C99.9729 43.824 99.5135 44.4881 98.8943 45.0374C98.275 45.5768 97.5309 45.9913 96.662 46.2809C95.7931 46.5605 94.8393 46.7004 93.8006 46.7004C92.1626 46.7004 90.6545 46.3208 89.2762 45.5618C87.9079 44.8027 86.8093 43.5992 85.9803 41.9513C85.1613 40.3033 84.7519 38.151 84.7519 35.4943C84.7519 32.7178 85.1813 30.4606 86.0402 28.7227C86.9092 26.9849 88.0278 25.7115 89.3961 24.9025C90.7744 24.0935 92.2226 23.689 93.7407 23.689C94.8792 23.689 95.878 23.8888 96.7369 24.2883C97.5959 24.6778 98.315 25.2021 98.8943 25.8613C99.4735 26.5105 99.913 27.2246 100.213 28.0036H100.392V23.9886H108.662V46.9401C108.662 48.8877 108.158 50.5406 107.149 51.8989C106.15 53.2672 104.742 54.3109 102.924 55.03C101.106 55.7491 98.9841 56.1087 96.5572 56.1087ZM96.8568 40.8277C97.6158 40.8277 98.265 40.6179 98.8044 40.1985C99.3537 39.769 99.7732 39.1598 100.063 38.3707C100.362 37.5717 100.512 36.6129 100.512 35.4943C100.512 34.3557 100.362 33.3819 100.063 32.573C99.7732 31.754 99.3537 31.1297 98.8044 30.7003C98.265 30.2608 97.6158 30.0411 96.8568 30.0411C96.0977 30.0411 95.4485 30.2608 94.9092 30.7003C94.3799 31.1297 93.9704 31.754 93.6807 32.573C93.4011 33.3819 93.2613 34.3557 93.2613 35.4943C93.2613 36.6329 93.4011 37.6017 93.6807 38.4007C93.9704 39.1897 94.3799 39.794 94.9092 40.2134C95.4485 40.6229 96.0977 40.8277 96.8568 40.8277ZM122.207 47.4195C119.75 47.4195 117.633 46.9501 115.855 46.0112C114.087 45.0624 112.724 43.7041 111.765 41.9363C110.816 40.1585 110.342 38.0312 110.342 35.5542C110.342 33.1772 110.821 31.0998 111.78 29.322C112.739 27.5442 114.092 26.1609 115.84 25.1722C117.588 24.1834 119.65 23.689 122.027 23.689C123.765 23.689 125.338 23.9587 126.746 24.498C128.154 25.0373 129.358 25.8214 130.357 26.8501C131.356 27.8688 132.125 29.1073 132.664 30.5655C133.203 32.0236 133.473 33.6666 133.473 35.4943V37.4119H112.918V32.8576H125.862C125.852 32.1984 125.683 31.6191 125.353 31.1198C125.033 30.6104 124.599 30.2159 124.05 29.9362C123.51 29.6466 122.896 29.5018 122.207 29.5018C121.538 29.5018 120.923 29.6466 120.364 29.9362C119.805 30.2159 119.355 30.6054 119.016 31.1048C118.686 31.6042 118.511 32.1884 118.492 32.8576V37.7715C118.492 38.5106 118.646 39.1697 118.956 39.749C119.266 40.3283 119.71 40.7827 120.289 41.1123C120.869 41.4419 121.568 41.6067 122.387 41.6067C122.956 41.6067 123.475 41.5268 123.945 41.367C124.424 41.2072 124.834 40.9775 125.173 40.6779C125.513 40.3683 125.762 39.9987 125.922 39.5692H133.473C133.213 41.1673 132.599 42.5555 131.63 43.7341C130.661 44.9026 129.378 45.8115 127.78 46.4607C126.192 47.0999 124.334 47.4195 122.207 47.4195ZM156.194 31.4793H148.583C148.543 31.0099 148.378 30.6054 148.089 30.2658C147.799 29.9262 147.425 29.6666 146.965 29.4868C146.516 29.297 146.016 29.2021 145.467 29.2021C144.758 29.2021 144.149 29.332 143.639 29.5917C143.13 29.8513 142.88 30.2209 142.89 30.7003C142.88 31.0399 143.025 31.3545 143.325 31.6441C143.634 31.9337 144.229 32.1585 145.108 32.3183L149.782 33.1572C152.139 33.5867 153.892 34.3108 155.04 35.3295C156.199 36.3383 156.783 37.6916 156.793 39.3895C156.783 41.0274 156.294 42.4507 155.325 43.6592C154.366 44.8577 153.053 45.7865 151.385 46.4457C149.727 47.0949 147.834 47.4195 145.707 47.4195C142.191 47.4195 139.44 46.7004 137.452 45.2622C135.475 43.824 134.371 41.9263 134.141 39.5692H142.351C142.461 40.2983 142.82 40.8626 143.43 41.2621C144.049 41.6517 144.828 41.8464 145.767 41.8464C146.526 41.8464 147.15 41.7166 147.639 41.4569C148.139 41.1972 148.393 40.8277 148.403 40.3483C148.393 39.9088 148.174 39.5593 147.744 39.2996C147.325 39.0399 146.666 38.8302 145.767 38.6704L141.692 37.9513C139.345 37.5418 137.587 36.7627 136.418 35.6142C135.25 34.4656 134.671 32.9874 134.681 31.1797C134.671 29.5817 135.09 28.2284 135.939 27.1197C136.798 26.0011 138.021 25.1522 139.609 24.5729C141.207 23.9836 143.1 23.689 145.287 23.689C148.613 23.689 151.235 24.3782 153.153 25.7564C155.08 27.1347 156.094 29.0423 156.194 31.4793Z" fill="#8646AE"/>
<path d="M62.2239 87V63.9886H70.2539V68.3632H70.4936C70.9131 66.7452 71.5772 65.5617 72.4861 64.8126C73.405 64.0635 74.4786 63.689 75.7071 63.689C76.0667 63.689 76.4212 63.719 76.7708 63.7789C77.1303 63.8288 77.4749 63.9037 77.8045 64.0036V71.0598C77.395 70.92 76.8906 70.8151 76.2914 70.7452C75.6921 70.6753 75.1778 70.6404 74.7483 70.6404C73.9393 70.6404 73.2102 70.8251 72.561 71.1947C71.9218 71.5542 71.4174 72.0636 71.0479 72.7228C70.6784 73.372 70.4936 74.136 70.4936 75.0149V87H62.2239ZM88.5965 87.4195C86.0996 87.4195 83.9622 86.9251 82.1844 85.9363C80.4067 84.9376 79.0434 83.5493 78.0945 81.7715C77.1457 79.9837 76.6713 77.9113 76.6713 75.5542C76.6713 73.1972 77.1457 71.1297 78.0945 69.352C79.0434 67.5642 80.4067 66.1759 82.1844 65.1871C83.9622 64.1884 86.0996 63.689 88.5965 63.689C91.0934 63.689 93.2307 64.1884 95.0085 65.1871C96.7863 66.1759 98.1496 67.5642 99.0984 69.352C100.047 71.1297 100.522 73.1972 100.522 75.5542C100.522 77.9113 100.047 79.9837 99.0984 81.7715C98.1496 83.5493 96.7863 84.9376 95.0085 85.9363C93.2307 86.9251 91.0934 87.4195 88.5965 87.4195ZM88.6564 81.3071C89.3555 81.3071 89.9598 81.0724 90.4691 80.603C90.9785 80.1335 91.373 79.4644 91.6527 78.5955C91.9323 77.7265 92.0721 76.6928 92.0721 75.4943C92.0721 74.2858 91.9323 73.2521 91.6527 72.3932C91.373 71.5243 90.9785 70.8551 90.4691 70.3857C89.9598 69.9163 89.3555 69.6816 88.6564 69.6816C87.9173 69.6816 87.2831 69.9163 86.7538 70.3857C86.2244 70.8551 85.8199 71.5243 85.5403 72.3932C85.2606 73.2521 85.1208 74.2858 85.1208 75.4943C85.1208 76.6928 85.2606 77.7265 85.5403 78.5955C85.8199 79.4644 86.2244 80.1335 86.7538 80.603C87.2831 81.0724 87.9173 81.3071 88.6564 81.3071ZM123.224 71.4793H115.613C115.573 71.0099 115.409 70.6054 115.119 70.2658C114.829 69.9262 114.455 69.6666 113.995 69.4868C113.546 69.297 113.046 69.2021 112.497 69.2021C111.788 69.2021 111.179 69.332 110.669 69.5917C110.16 69.8513 109.91 70.2209 109.92 70.7003C109.91 71.0399 110.055 71.3545 110.355 71.6441C110.664 71.9337 111.259 72.1585 112.138 72.3183L116.812 73.1572C119.169 73.5867 120.922 74.3108 122.07 75.3295C123.229 76.3383 123.813 77.6916 123.823 79.3895C123.813 81.0274 123.324 82.4507 122.355 83.6592C121.396 84.8577 120.083 85.7865 118.415 86.4457C116.757 87.0949 114.864 87.4195 112.737 87.4195C109.221 87.4195 106.47 86.7004 104.482 85.2622C102.505 83.824 101.401 81.9263 101.171 79.5692H109.381C109.491 80.2983 109.85 80.8626 110.46 81.2621C111.079 81.6517 111.858 81.8464 112.797 81.8464C113.556 81.8464 114.18 81.7166 114.669 81.4569C115.169 81.1972 115.423 80.8277 115.433 80.3483C115.423 79.9088 115.204 79.5593 114.774 79.2996C114.355 79.0399 113.696 78.8302 112.797 78.6704L108.722 77.9513C106.375 77.5418 104.617 76.7627 103.448 75.6142C102.28 74.4656 101.701 72.9874 101.711 71.1797C101.701 69.5817 102.12 68.2284 102.969 67.1197C103.828 66.0011 105.051 65.1522 106.639 64.5729C108.237 63.9836 110.13 63.689 112.317 63.689C115.643 63.689 118.265 64.3782 120.183 65.7564C122.11 67.1347 123.124 69.0423 123.224 71.4793ZM136.33 87.4195C133.873 87.4195 131.756 86.9501 129.978 86.0112C128.21 85.0624 126.847 83.7041 125.888 81.9363C124.94 80.1585 124.465 78.0312 124.465 75.5542C124.465 73.1772 124.945 71.0998 125.903 69.322C126.862 67.5442 128.215 66.1609 129.963 65.1722C131.711 64.1834 133.774 63.689 136.151 63.689C137.888 63.689 139.461 63.9587 140.87 64.498C142.278 65.0373 143.481 65.8214 144.48 66.8501C145.479 67.8688 146.248 69.1073 146.787 70.5655C147.327 72.0236 147.596 73.6666 147.596 75.4943V77.4119H127.042V72.8576H139.986C139.976 72.1984 139.806 71.6191 139.476 71.1198C139.157 70.6104 138.722 70.2159 138.173 69.9362C137.634 69.6466 137.02 69.5018 136.33 69.5018C135.661 69.5018 135.047 69.6466 134.488 69.9362C133.928 70.2159 133.479 70.6054 133.139 71.1048C132.81 71.6042 132.635 72.1884 132.615 72.8576V77.7715C132.615 78.5106 132.77 79.1697 133.079 79.749C133.389 80.3283 133.833 80.7827 134.413 81.1123C134.992 81.4419 135.691 81.6067 136.51 81.6067C137.079 81.6067 137.599 81.5268 138.068 81.367C138.548 81.2072 138.957 80.9775 139.297 80.6779C139.636 80.3683 139.886 79.9987 140.046 79.5692H147.596C147.337 81.1673 146.722 82.5555 145.754 83.7341C144.785 84.9026 143.501 85.8115 141.903 86.4607C140.315 87.0999 138.458 87.4195 136.33 87.4195Z" fill="#1E1E1E"/>
<path d="M150.967 63.1818C150.134 63.1818 149.416 63.0341 148.814 62.7386C148.212 62.4432 147.75 62.0473 147.428 61.5511C147.106 61.0549 146.945 60.5076 146.945 59.9091C146.945 59.4735 147.028 59.089 147.195 58.7557C147.361 58.4186 147.594 58.1098 147.893 57.8295C148.193 57.5492 148.543 57.2727 148.945 57L151.581 55.3636C151.846 55.197 152.026 55.0246 152.121 54.8466C152.215 54.6648 152.263 54.5038 152.263 54.3636C152.263 54.178 152.195 54.0133 152.058 53.8693C151.922 53.7254 151.71 53.6553 151.422 53.6591C151.244 53.6591 151.09 53.6932 150.962 53.7614C150.833 53.8258 150.732 53.9167 150.661 54.0341C150.592 54.1515 150.558 54.2917 150.558 54.4545C150.558 54.678 150.623 54.9072 150.751 55.142C150.88 55.3731 151.056 55.6231 151.28 55.892C151.503 56.161 151.755 56.4621 152.036 56.7955L157.672 63H154.536L149.808 58C149.577 57.7538 149.321 57.4527 149.041 57.0966C148.761 56.7367 148.518 56.3314 148.314 55.8807C148.113 55.4299 148.013 54.9394 148.013 54.4091C148.013 53.8182 148.155 53.2784 148.439 52.7898C148.723 52.3011 149.121 51.911 149.632 51.6193C150.143 51.3277 150.74 51.1818 151.422 51.1818C152.073 51.1818 152.634 51.3163 153.104 51.5852C153.577 51.8542 153.941 52.2121 154.195 52.6591C154.452 53.1061 154.581 53.5985 154.581 54.1364C154.581 54.678 154.446 55.1837 154.178 55.6534C153.912 56.1231 153.532 56.5341 153.036 56.8864L150.626 58.5909C150.441 58.7197 150.28 58.8674 150.143 59.0341C150.011 59.2008 149.945 59.4167 149.945 59.6818C149.945 59.9015 149.996 60.089 150.098 60.2443C150.2 60.3996 150.344 60.5189 150.53 60.6023C150.719 60.6856 150.941 60.7273 151.195 60.7273C151.581 60.7273 151.967 60.6345 152.354 60.4489C152.744 60.2595 153.1 59.9962 153.422 59.6591C153.744 59.3182 154.001 58.9167 154.195 58.4545C154.392 57.9886 154.49 57.4811 154.49 56.9318H156.967C156.967 57.6061 156.897 58.2557 156.757 58.8807C156.617 59.5057 156.392 60.0777 156.081 60.5966C155.77 61.1155 155.361 61.553 154.854 61.9091C154.695 61.9886 154.539 62.0644 154.388 62.1364C154.236 62.2083 154.081 62.2841 153.922 62.3636C153.456 62.6629 152.969 62.875 152.462 63C151.954 63.1212 151.456 63.1818 150.967 63.1818Z" fill="#1E1E1E"/>
<path d="M5.1875 87V21.5455H33.4403C38.2983 21.5455 42.549 22.5043 46.1925 24.4219C49.8359 26.3395 52.6697 29.0348 54.6939 32.5078C56.718 35.9808 57.7301 40.0398 57.7301 44.6847C57.7301 49.3722 56.6861 53.4311 54.598 56.8615C52.5313 60.2919 49.6229 62.9339 45.8729 64.7876C42.1442 66.6413 37.7869 67.5682 32.8011 67.5682H15.9261V53.7614H29.2216C31.3097 53.7614 33.0888 53.3991 34.5589 52.6747C36.0504 51.929 37.1903 50.8743 37.9787 49.5107C38.7884 48.147 39.1932 46.5384 39.1932 44.6847C39.1932 42.8097 38.7884 41.2116 37.9787 39.8906C37.1903 38.5483 36.0504 37.5256 34.5589 36.8224C33.0888 36.098 31.3097 35.7358 29.2216 35.7358H22.9574V87H5.1875Z" fill="#8646AE"/>
<path d="M5 32L17 21.5V32H5Z" fill="#B464E5" stroke="#B464E5" stroke-width="0.2"/>
<path d="M5 21H17L5 32V21Z" fill="white" stroke="white" stroke-width="0.2"/>
</svg>
